<!--?xml version="1.0" standalone="no"?-->
              <svg id="sw-js-blob-svg" viewBox="0 0 100 100" xmlns="http://www.w3.org/2000/svg" version="1.1">
                    <defs> 
                        <linearGradient id="sw-gradient" x1="0" x2="1" y1="1" y2="0">
                            <stop id="stop1" stop-color="rgba(27, 67, 227, 0.83)" offset="0%"></stop>
                            <stop id="stop2" stop-color="rgba(220, 37, 163, 0.91)" offset="100%"></stop>
                        </linearGradient>
                    </defs>
                <path fill="url(#sw-gradient)" d="M22.6,-38.2C29.5,-35.1,35.5,-29.5,38.9,-22.8C42.4,-16,43.2,-8,42.3,-0.5C41.4,6.9,38.7,13.9,35.4,20.9C32.1,27.9,28.2,34.9,22.2,38.2C16.2,41.5,8.1,41.1,0.3,40.5C-7.5,40,-14.9,39.3,-20.4,35.7C-25.9,32.2,-29.4,25.6,-32.8,19.1C-36.2,12.7,-39.4,6.3,-39.5,-0.1C-39.6,-6.5,-36.6,-12.9,-33.2,-19.4C-29.8,-25.8,-26,-32.2,-20.4,-36.1C-14.8,-40,-7.4,-41.4,0.2,-41.7C7.8,-42.1,15.7,-41.4,22.6,-38.2Z" width="100%" height="100%" transform="translate(50 50)" stroke-width="0" style="transition: all 0.3s ease 0s;" stroke="url(#sw-gradient)"></path>
              </svg>