<svg id="contact" xmlns="http://www.w3.org/2000/svg" xmlns:xlink="http://www.w3.org/1999/xlink" viewBox="0 0 410 409.25" shape-rendering="geometricPrecision" text-rendering="geometricPrecision"><g id="contact-u-floor"><path id="contact-u-suelo" d="M110,426c80.1,38.17,209.9,38.17,290,0s80-100,0-138.17-209.86-38.16-289.92,0-80.08,100.02-.08,138.17Z" transform="translate(-50-45.37)" fill="#ececec"/></g><g id="contact-u-cloud"><path id="contact-u-nube" d="M368.08,142.3l3.68-2.83v-8.1c0-6.41,5.11-13.86,10.67-17.07v0c5.56-3.21,10.07-.61,10.07,5.81v1.17c1.168983-1.897912,2.764598-3.496952,4.66-4.67v0c4-2.31,7.25-.44,7.25,4.18v.54l7.36-4.25c2.63-1.52,4.77-.29,4.77,2.75-.183515,3.355952-1.955056,6.423651-4.77,8.26l-43.69,25.22c-2.63,1.52-4.77.29-4.77-2.75.183515-3.355952,1.955056-6.423651,4.77-8.26Z" transform="translate(-50-45.37)" fill="#ececec"/></g><g id="contact-u-plants"><g id="contact-u-hojas"><path id="contact-s-path1" d="M104.09,362.44c-.52-.09-1.07-.25-1.69-.41-2.089563-.560555-4.148944-1.228102-6.17-2-4.031033-1.46267-7.832693-3.49314-11.29-6.03-1.896061-1.348382-3.518242-3.045224-4.78-5-1.26109-1.978997-1.708928-4.368661-1.25-6.67.518736-2.319357,2.337341-4.126254,4.66-4.63c1.07-.17,2.18,0,3.25-.19c1.124421-.089998,2.060011-.900033,2.31-2c.004285-.613268-.161895-1.215668-.48-1.74-1.942877-3.558913-3.614293-7.259429-5-11.07-1.159945-3.400384-1.229862-7.077984-.2-10.52.87454-3.424555,2.747152-6.511928,5.38-8.87c1.2-1,2.86-1.86,4.31-1.23.932959.474699,1.61226,1.332957,1.86,2.35.223825,1.004676.337827,2.030696.34,3.06.142815,2.214577.566199,4.402065,1.26,6.51.310512,1.317005,1.066488,2.486294,2.14,3.31c1.86,1.16,4.42.25,6.4,1.19s2.66,3.1,2.75,5.14-.32,4.1-.09,6.13c.040271.640434.243348,1.259991.59,1.8.550525.589931,1.187863,1.092383,1.89,1.49c1.868487,1.54563,2.935072,3.855337,2.9,6.28-.060656,2.391841-.516822,4.757145-1.35,7-.918049,3.135647-1.586798,6.338957-2,9.58-.325988,1.985756-1.167339,3.851209-2.44,5.41-.772086,1.006421-2.076633,1.445223-3.3,1.11Z" transform="translate(-50-45.37)" fill="#006aff"/><path id="contact-s-path2" d="M107.41,360.78c-.119878-.001575-.230066-.066168-.29-.17-11.67-19.68-15.36-33.54-16.41-41.71-1.15-8.9.47-13.07.54-13.24.069036-.176731.268269-.264036.445-.195s.264036.268269.195.445c0,.07-1.62,4.26-.49,13c1,8.09,4.74,21.83,16.31,41.36.047234.078037.061129.171782.038563.260165s-.0797.163992-.158563.209835c-.056185.026827-.117741.040507-.18.04Z" transform="translate(-50-45.37)" fill="#fff"/><path id="contact-s-path3" d="M101.17,349.37v0c-14.22-1.56-18.24-6.23-18.41-6.43-.132224-.132682-.132224-.347318,0-.48.062345-.066062.149164-.103505.24-.103505s.177655.037443.24.103505v0c0,.05,4.06,4.66,17.95,6.19.168117.028726.291051.174447.291051.345s-.122934.316274-.291051.345l-.02.03Z" transform="translate(-50-45.37)" fill="#fff"/><path id="contact-s-path4" d="M97.16,340.51c-.07573,0-.149416-.024562-.21-.07-.072079-.055364-.11899-.137282-.130264-.227467s.014031-.18113.070264-.252533c4.51-5.93,4.8-15.65,4.81-15.75-.000167-.091099.037332-.178216.103615-.240711s.155453-.09481.246385-.089289c.091099-.000167.178216.037332.240711.103615s.09481.155453.089289.246385c0,.41-.3,10-4.94,16.14-.066099.088132-.169835.14-.28.14Z" transform="translate(-50-45.37)" fill="#fff"/><path id="contact-s-path5" d="M388.6,301.66c1.38-9.3,1.4-20.65-5.43-37.23s-4.71-25.27,2.61-27.64s23.54,10.22,22.94,31.39c-.59,20.44-14.4,37.32-14.4,37.32l-5.72-3.84Z" transform="translate(-50-45.37)" fill="#006aff"/><path id="contact-s-path6" d="M388.6,301.66c1.38-9.3,1.4-20.65-5.43-37.23s-4.71-25.27,2.61-27.64s23.54,10.22,22.94,31.39c-.59,20.44-14.4,37.32-14.4,37.32l-5.72-3.84Z" transform="translate(-50-45.37)" opacity="0.1"/><path id="contact-s-path7" d="M392.17,304.4c-.042846.009188-.087154.009188-.13,0-.085942-.032899-.154244-.10019-.188421-.185632s-.031124-.181274.008421-.264368c.07-.17,7.55-17.64,7-33.5-.62-18.25-10.73-28.29-10.83-28.39-.13531-.132548-.137548-.34969-.005-.485s.34969-.137548.485-.005c.1.1,10.4,10.31,11,28.86.55,16-7,33.62-7.06,33.79-.057003.103383-.162282.171062-.28.18Z" transform="translate(-50-45.37)" fill="#fff"/><path id="contact-s-path8" d="M389,309.91c0,0,3.86-22.48,17.56-35.4s36.54-15.38,43.7-8.48s2.57,13.61-7.52,15.94c-11.4,2.63-18.39,7.23-11.4,10.75c6.49,3.26,5.76,10.33-1,13.72-10.8,5.42-30.3.26-35,10.92L389,309.91Z" transform="translate(-50-45.37)" fill="#006aff"/><path id="contact-s-path9" d="M391.9,314.67h-.11c-.177439-.065777-.270461-.26068-.21-.44c3.158133-8.790605,8.024988-16.869176,14.32-23.77c4.933902-5.336376,10.710795-9.826136,17.1-13.29c6.347657-3.503395,13.257967-5.872257,20.42-7c.189988-.017513.359.120365.38.31.011256.09029-.014147.181325-.070528.252741s-.139035.117253-.229472.127259c-7.089758,1.138554-13.925954,3.507534-20.2,7-10,5.43-23.57,16.2-31.1,36.65-.066929.100171-.179528.160223-.3.16Z" transform="translate(-50-45.37)" fill="#fff"/><path id="contact-s-path10" d="M398.85,300.53c-.14747.000511-.279439-.091467-.33-.23-.060461-.17932.032561-.374223.21-.44c11.69-4.08,28.45-1.94,28.62-1.92.187777.024853.319853.197223.295.385s-.197223.319853-.385.295c-.16,0-16.77-2.14-28.3,1.89-.034333.016028-.072223.022917-.11.02Z" transform="translate(-50-45.37)" fill="#fff"/></g></g><g id="contact-u-social-media"><g id="contact-u-redes-sociales"><path id="contact-s-path11" d="M118.45,70c-.169559-3.132406-1.822493-5.996254-4.45-7.71l-3.63-2.1c-2.796767-1.419911-6.103233-1.419911-8.9,0L72.76,76.76c-1.367281.859177-2.484632,2.062743-3.24,3.49-.650402,1.13399-1.058978,2.390358-1.2,3.69c0,.18,0,.36,0,.54v33.14c.17182,3.134263,1.828683,5.998481,4.46,7.71l3.62,2.1.46.24.17.07.31.13.24.09.26.09.29.08.22.06.34.08h.17l.41.07h.08c2.050123.33607,4.153973.00296,6-.95L114,110.86c2.631653-1.715855,4.288112-4.583089,4.46-7.72L118.45,70Z" transform="translate(-50-45.37)" fill="#006aff"/><path id="contact-s-path12" d="M82.14,87.33c-.514164.85155-.898394,1.77505-1.14,2.74.596986-2.499377,2.133216-4.673018,4.29-6.07L114,67.43c2.46-1.42,4.46-.27,4.46,2.57-.17182-3.134263-1.828683-5.998481-4.46-7.71l-3.63-2.1c-2.796767-1.419911-6.103233-1.419911-8.9,0L72.76,76.76c-1.367281.859177-2.484632,2.062743-3.24,3.49l.09-.16l12.53,7.24Z" transform="translate(-50-45.37)" opacity="0.4" fill="#fff"/><path id="contact-s-path13" d="M84.37,127.85l-.21.06v0l-.36.07v0h-.34-.35c-.413513-.03041-.809413-.17974-1.14-.43v0l-.16-.15-.09-.08-.12-.15-.1-.13-.1-.16-.09-.16c0,0,0-.11-.07-.17-.030881-.061475-.057607-.124951-.08-.19L81,126.2v-.2c0-.06,0-.12,0-.18-.005523-.096588-.005523-.193412,0-.29-.005485-.053192-.005485-.106808,0-.16c0-.15,0-.31,0-.48v-33.17c.000575-.358533.030676-.716409.09-1.07v0c0-.13,0-.27.08-.4v-.16c.229071-.96273.599777-1.886126,1.1-2.74L69.61,80.09l-.09.16c-.650402,1.13399-1.058978,2.390358-1.2,3.69c0,.18,0,.36,0,.54v33.14c.17182,3.134263,1.828683,5.998481,4.46,7.71l3.62,2.1.46.24.17.07.31.13.24.09.26.09.29.08.22.06.34.08h.17l.41.07h.08c1.688049.256503,3.413415.088091,5.02-.49Z" transform="translate(-50-45.37)" opacity="0.1"/><path id="contact-s-path14" d="M105.91,100.39c1.91758-4.283555,2.899424-8.926858,2.88-13.62.936902-1.453422,1.72425-2.997964,2.35-4.61-.807304.946602-1.71608,1.801723-2.71,2.55c1.008616-1.409773,1.713496-3.01363,2.07-4.71-.865429,1.20322-1.872688,2.297776-3,3.26-1.023871-.761703-2.426129-.761703-3.45,0-3,1.76-5.28,6.84-4.59,10.38-3.92,2-7.4,1.5-9.72-1-1.24,3.54-.64,6.9,1.46,7.55-.642627.385887-1.396381.544386-2.14.45c0,3,1.51,4.77,3.78,4.06-.601726.599243-1.329332,1.056986-2.13,1.34.6,2.15,2.34,3,4.41,1.83-1.61139,2.865307-4.051492,5.176432-7,6.63c2.08.58,4.56.19,7.23-1.35c4.66-2.69,8.24-7.56,10.53-12.83" transform="translate(-50-45.37)" fill="#fff"/><path id="contact-s-path15" d="M118.45,190.67c-.182-3.118015-1.833459-5.964463-4.45-7.67l-3.63-2.1c-2.796767-1.419911-6.103233-1.419911-8.9,0l-28.7,16.57c-1.367281.859177-2.484632,2.062743-3.24,3.49-.650402,1.13399-1.058978,2.390358-1.2,3.69c0,.18,0,.36,0,.54v33.14c.177463,3.114318,1.821077,5.960033,4.43,7.67l3.62,2.1.46.23.17.08.31.13.24.09.26.09.29.08.22.06.34.08h.17l.41.07h.08c2.055499.320756,4.159638-.029934,6-1L114,231.53c2.631653-1.715855,4.288112-4.583089,4.46-7.72l-.01-33.14Z" transform="translate(-50-45.37)" fill="#006aff"/><path id="contact-s-path16" d="M82.14,208c-.500223.853874-.870929,1.77727-1.1,2.74.587098-2.492917,2.108304-4.665557,4.25-6.07L114,188.1c2.46-1.42,4.46-.27,4.46,2.57-.184265-3.119867-1.839649-5.966683-4.46-7.67l-3.63-2.1c-2.796767-1.419911-6.103233-1.419911-8.9,0l-28.7,16.57c-1.367281.859177-2.484632,2.062743-3.24,3.49l.09-.16L82.14,208Z" transform="translate(-50-45.37)" opacity="0.4" fill="#fff"/><path id="contact-s-path17" d="M84.37,248.52l-.21.06v0c-.117698.036136-.238075.062887-.36.08v0h-.34-.35c-.413513-.03041-.809413-.17974-1.14-.43v0l-.16-.15-.09-.08-.12-.16-.1-.12c-.029697-.055521-.063107-.108976-.1-.16l-.09-.16c0-.06,0-.11-.07-.17-.032658-.064111-.059434-.131052-.08-.2l-.06-.17-.06-.24c0,0,0-.11,0-.17-.005523-.096588-.005523-.193412,0-.29-.005485-.053192-.005485-.106808,0-.16c0-.15,0-.32,0-.49v-33.12c.000575-.358533.030676-.716409.09-1.07v0c0-.14,0-.27.08-.4v-.16c.229071-.96273.599777-1.886126,1.1-2.74l-12.53-7.24-.09.16c-.650402,1.13399-1.058978,2.390358-1.2,3.69c0,.18,0,.36,0,.54v33.14c.134676,3.092235,1.716439,5.940891,4.27,7.69l3.62,2.1.46.23.17.08.31.13.24.09.26.09.29.08.22.06.34.08h.17l.41.07h.08c1.694565.259892,3.427231.091439,5.04-.49Z" transform="translate(-50-45.37)" opacity="0.1"/><path id="contact-s-path18" d="M99.64,206c2.94-1.7,3.29-1.88,4.45-2.48.61063-.366516,1.292513-.598357,2-.68.452205-.045974.904449.086827,1.26.37.39976.303419.690867.727804.83,1.21.25764.811532.385878,1.658573.38,2.51.05,1.51.06,2,.06,5.89s0,4.38-.06,6c-.017541.991038-.144988,1.97707-.38,2.94-.180941.753222-.459992,1.479428-.83,2.16-.331695.66631-.75589,1.282402-1.26,1.83-.587961.64752-1.260713,1.212631-2,1.68-1.16.74-1.51,1-4.45,2.65s-3.28,1.89-4.44,2.49c-.61144.363008-1.293276.591423-2,.67-.45534.046497-.910883-.08622-1.27-.37-.393989-.306867-.680976-.730347-.82-1.21-.25709-.808225-.385326-1.651888-.38-2.5c0-1.52-.07-2-.07-5.89s0-4.39.07-6c.014835-1.011011.142288-2.01722.38-3c.183667-.750919.459072-1.476374.82-2.16.340116-.663735.767212-1.279158,1.27-1.83.585688-.649878,1.258782-1.215277,2-1.68c1.16-.74,1.51-1,4.44-2.65m0-2.64c-3,1.72-3.36,2-4.53,2.7-.987852.617652-1.886238,1.367989-2.67,2.23-.794416.83884-1.467604,1.784669-2,2.81-.557641,1.054013-.984147,2.172332-1.27,3.33-.31119,1.264042-.482221,2.558512-.51,3.86c0,1.59-.07,2.1-.07,6.08s0,4.48.07,6c.000189,1.109791.172228,2.21286.51,3.27.221567.736049.665126,1.385671,1.27,1.86.567334.442544,1.284605.646967,2,.57.941087-.093259,1.851397-.386468,2.67-.86c1.17-.61,1.54-.81,4.53-2.53s3.36-2,4.54-2.71c1.965676-1.215958,3.562882-2.944535,4.62-5c.556229-1.053561.979468-2.172121,1.26-3.33.315118-1.260166.489517-2.55139.52-3.85c0-1.6.06-2.11.06-6.09s0-4.47-.06-6c-.001357-1.107208-.176834-2.207314-.52-3.26-.219971-.737006-.659533-1.389372-1.26-1.87-.567839-.440917-1.285763-.641935-2-.56-.942116.088285-1.853466.381828-2.67.86-1.18.6-1.55.8-4.54,2.53m0,7.13c-3.12,1.8-5.65,6.63-5.65,10.79s2.53,6.07,5.65,4.27s5.65-6.63,5.65-10.79-2.53-6.07-5.65-4.27m0,12.42c-2,1.17-3.66-.07-3.66-2.77s1.64-5.84,3.66-7s3.67.07,3.67,2.78-1.64,5.83-3.67,7m7.19-16.87c0-1-.59-1.42-1.32-1-.817416.585332-1.307522,1.524701-1.32,2.53c0,1,.59,1.41,1.32,1c.814605-.583251,1.304362-1.518243,1.32-2.52" transform="translate(-50-45.37)" fill="#fff"/><path id="contact-s-path19" d="M168.41,113.51c-.158904-3.125469-1.796519-5.988511-4.41-7.71l-3.63-2.1c-2.800256-1.420057-6.109744-1.420057-8.91,0l-28.7,16.57c-2.456384,1.629581-4.075403,4.253634-4.43,7.18c0,.18,0,.36,0,.54v33.14c.167963,3.13288,1.821285,5.997399,4.45,7.71l3.63,2.1.46.24.17.07.31.13.23.09.27.09.28.08.23.06.34.08h.17l.41.07h.08c2.050125.33535,4.153749.002277,6-.95L164,154.37c2.62905-1.716937,4.281967-4.584471,4.45-7.72l-.04-33.14Z" transform="translate(-50-45.37)" fill="#006aff"/><path id="contact-s-path20" d="M132.11,130.84c-.498833.855696-.872623,1.778385-1.11,2.74.589573-2.494528,2.114533-4.667418,4.26-6.07L164,110.94c2.46-1.42,4.45-.27,4.45,2.57-.167963-3.13288-1.821285-5.997399-4.45-7.71l-3.63-2.1c-2.800256-1.420057-6.109744-1.420057-8.91,0l-28.7,16.57c-1.362108.862335-2.475487,2.065335-3.23,3.49l.08-.16l12.5,7.24Z" transform="translate(-50-45.37)" opacity="0.4" fill="#fff"/><path id="contact-s-path21" d="M134.34,171.36l-.22.06v0c-.114304.036115-.231357.06287-.35.08v0h-.33-.44c-.410168-.031738-.802495-.18103-1.13-.43v0l-.16-.15-.09-.08-.13-.16-.09-.12c-.039101-.049504-.072636-.10316-.1-.16l-.09-.16c0-.05,0-.11-.08-.17l-.07-.19-.06-.18q0-.11-.06-.24c-.005681-.056524-.005681-.113476,0-.17-.005523-.096588-.005523-.193412,0-.29-.005485-.053192-.005485-.106808,0-.16-.010196-.159838-.010196-.320162,0-.48v-33.13c.005543-.358303.035613-.715806.09-1.07v0c0-.14,0-.27.07-.4.003884-.053263.003884-.106737,0-.16.237377-.961615.611167-1.884304,1.11-2.74l-12.54-7.24-.08.16c-.654725,1.132067-1.063604,2.389371-1.2,3.69c0,.18,0,.36,0,.54v33.14c.167963,3.13288,1.821285,5.997399,4.45,7.71l3.63,2.1.46.24.17.07.31.13.23.09.27.09.28.08.23.06.34.08h.17l.41.07h.08c1.657058.233375,3.346042.058298,4.92-.51Z" transform="translate(-50-45.37)" opacity="0.1"/><path id="contact-s-path22" d="M146.51,159.32l4.79-2.77v-16l3.34-1.93.35-5.56-3.69,2.13v-3.05c0-1.26.19-1.87,1.1-2.39l2.59-1.5v-5.56l-3.31,1.92c-3.343709,1.762442-5.360815,5.305059-5.17,9.08v4.31L144,139.41v5.42l2.49-1.43.02,15.92Z" transform="translate(-50-45.37)" fill="#fff"/></g></g><g id="contact-u-device"><g id="contact-u-m-vil"><path id="contact-u-sombra-m-vil" d="M103.56,368l114.73,66.22c2.733565,1.389479,5.966435,1.389479,8.7,0L405.91,330.93c2.4-1.39,2.4-3.63,0-5L291.18,259.67c-2.730073-1.389339-5.959927-1.389339-8.69,0L103.56,363c-2.4,1.36-2.4,3.6,0,5Z" transform="translate(-50-45.37)" fill="#e1e1e1"/><path id="contact-s-path23" d="M107.17,352l111.48,64.37c2.762645,1.400502,6.027355,1.400502,8.79,0L404.19,314.34c2.43-1.4,2.43-3.67,0-5.07L292.7,244.9c-2.762645-1.400502-6.027355-1.400502-8.79,0L107.17,347c-2.43,1.35-2.43,3.62,0,5Z" transform="translate(-50-45.37)" fill="#2b454e"/><path id="contact-s-path24" d="M218.65,416.39L107.17,352c-2.17-1.25-2.4-3.2-.69-4.6-2.197706,1.74251-3.5474,4.340033-3.71,7.14v4.13c.168795,3.095972,1.80301,5.926136,4.4,7.62l111.48,64.36c1.353356.718889,2.86786,1.080304,4.4,1.05v-14.26c-1.53214.030304-3.046644-.331111-4.4-1.05Z" transform="translate(-50-45.37)" fill="#375a64"/><path id="contact-s-path25" d="M404.19,328.62c2.594054-1.690611,4.225131-4.518059,4.39-7.61v-4.13c-.16134-2.800313-1.511286-5.398323-3.71-7.14c1.71,1.4,1.49,3.35-.68,4.6L227.44,416.39c-1.350381.717232-2.861231,1.078597-4.39,1.05v14.28c1.528769.028597,3.039619-.332768,4.39-1.05L404.19,328.62Z" transform="translate(-50-45.37)" fill="#1a2e35"/><path id="contact-s-path26" d="M167,381.73c3.836296,1.950565,8.373704,1.950565,12.21,0c3.37-2,3.37-5.1,0-7.05-3.838996-1.939264-8.371004-1.939264-12.21,0-3.33,1.95-3.33,5.11,0,7.05Z" transform="translate(-50-45.37)" fill="#1a2e35"/><path id="contact-s-path27" d="M236,402.73L129.29,341.08c-1.45-.84-1.45-2.21,0-3.05l139-80.28c1.656423-.839272,3.613577-.839272,5.27,0L380.27,319.4c1.46.84,1.46,2.2,0,3l-139,80.29c-1.650046.851872-3.607213.866727-5.27.04Z" transform="translate(-50-45.37)" fill="#fff"/><path id="contact-s-path28" d="M340.38,281.61c.97167.490224,2.11833.490224,3.09,0c.339415-.169163.553934-.515766.553934-.895s-.214519-.725837-.553934-.895c-.97167-.490224-2.11833-.490224-3.09,0-.86.49-.86,1.29,0,1.79Z" transform="translate(-50-45.37)" fill="#1a2e35"/><path id="contact-s-path29" d="M345.32,295.63c1.94334.980449,4.23666.980449,6.18,0c1.71-1,1.71-2.59,0-3.57-1.941019-.990155-4.238981-.990155-6.18,0-1.71.94-1.71,2.58,0,3.57Z" transform="translate(-50-45.37)" fill="#1a2e35"/><path id="contact-s-path30" d="M341,289.41c1.14-.65,1.08-1.75-.14-2.45l-20.34-11.75c-1.326082-.704134-2.908416-.733849-4.26-.08-1.14.66-1.08,1.76.14,2.46l20.34,11.75c1.327684.70096,2.910003.72696,4.26.07Z" transform="translate(-50-45.37)" fill="#1a2e35"/><path id="contact-s-path31" d="M266.49,274.33c-1.46.84-1.46,2.2,0,3l81.3,46.95c1.65991.839425,3.62009.839425,5.28,0l18-10.37-86.58-50-18,10.42Z" transform="translate(-50-45.37)" fill="#ececec"/><path id="contact-s-path32" d="M267.09,282.48l-6.49-3.74c-.549815-.279661-1.200185-.279661-1.75,0l-4.09,2.36c-.49.28-.49.73,0,1l.56.33-2.07,1.1c-.24.13-.22.21.06.19l3.64-.35l4.3,2.48c.555138.272006,1.204862.272006,1.76,0l4.08-2.36c.209907-.079493.348754-.280545.348754-.505s-.138847-.425507-.348754-.505Z" transform="translate(-50-45.37)" fill="#ececec"/><path id="contact-s-path33" d="M269,292.24l-.48-1c-.62-1.31-1-3.09.8-4.12c1.383066-.700326,3.016934-.700326,4.4,0c.94.54,1.15,1.35.63,2c1.167496-.31973,2.412354-.19132,3.49.36.548139.177961.919299.688696.919299,1.265s-.37116,1.087039-.919299,1.265c-1.76,1-4.84.82-7.11.47l-1.73-.24Z" transform="translate(-50-45.37)" fill="#ececec"/><path id="contact-s-path34" d="M179.9,327.36l81.31,46.95c1.65991.839425,3.62009.839425,5.28,0l63.32-36.57c1.45-.84,1.45-2.2,0-3L248.5,287.75c-1.65991-.839425-3.62009-.839425-5.28,0L179.9,324.32c-1.46.84-1.46,2.2,0,3.04Z" transform="translate(-50-45.37)" fill="#ececec"/><path id="contact-s-path35" d="M180.52,332.47L174,328.72c-.555138-.272006-1.204862-.272006-1.76,0l-4.09,2.36c-.203211.082894-.336039.280532-.336039.5s.132828.417106.336039.5l.57.33-2.07,1.09c-.25.13-.22.22,0,.19l3.64-.34l4.3,2.48c.555138.272006,1.204862.272006,1.76,0l4.09-2.37c.212915-.06035.365919-.246639.383744-.467223s-.103282-.429022-.303744-.522777Z" transform="translate(-50-45.37)" fill="#ececec"/><path id="contact-s-path36" d="M182.38,342.22l-.47-1c-.63-1.31-1-3.09.8-4.13c1.379578-.700177,3.010422-.700177,4.39,0c1,.55,1.16,1.36.63,2c1.171751-.308008,2.415481-.180082,3.5.36.54529.183524.912566.694655.912566,1.27s-.367276,1.086476-.912566,1.27c-1.76,1-4.84.82-7.12.47l-1.73-.24Z" transform="translate(-50-45.37)" fill="#ececec"/><path id="contact-s-path37" d="M156.65,337.74c1.65991-.839425,3.62009-.839425,5.28,0l81.3,46.94c1.46.84,1.46,2.21,0,3.05l-16.59,9.58-86.56-50l16.57-9.57Z" transform="translate(-50-45.37)" fill="#ececec"/><path id="contact-s-path38" d="M247,326.93l-46.28,12.43v0l60.51,34.94c1.65991.839425,3.62009.839425,5.28,0l1.31-.76l26.11-38.31-55.45,10.88L247,326.93Z" transform="translate(-50-45.37)" fill="#e1e1e1"/><path id="contact-s-path39" d="M269.79,300.05l-21.29-12.3c-1.65991-.839425-3.62009-.839425-5.28,0l-23.8,13.75c1.09,2.07,3.34,4,6.75,5.67c10,4.78,26.28,4.78,36.31,0c4.2-2,6.63-4.52,7.31-7.12Z" transform="translate(-50-45.37)" fill="#e1e1e1"/><path id="contact-s-path40" d="M372.46,295.72L265.74,234.08c-1.656423-.839272-3.613577-.839272-5.27,0l-139,80.28c-1.45.84-1.45,2.2,0,3l22.56,13l84.19,48.63c1.656423.839272,3.613577.839272,5.27,0L358.61,306.7l13.84-8c1.47-.77,1.47-2.14.01-2.98Z" transform="translate(-50-45.37)" opacity="0.2" fill="#fff"/><path id="contact-s-path41" d="M372.72,295.28l-88.24-51L266,233.64c-1.814601-.929327-3.965399-.929327-5.78,0l-139,80.28c-.810968.311943-1.346077,1.091106-1.346077,1.96s.535109,1.648057,1.346077,1.96l22.56,13L228,379.5c1.813803.932633,3.966197.932633,5.78,0l125.11-72.29l13.85-8c.808961-.316456,1.341316-1.096345,1.341316-1.965s-.532355-1.648544-1.341316-1.965h-.02Zm-.51,3.05l-13.85,8-125.11,72.29c-1.501651.7496-3.268349.7496-4.77,0L144.29,330l-22.55-13c-.495576-.126888-.842196-.573438-.842196-1.085s.34662-.958112.842196-1.085l139-80.28c1.50275-.744924,3.26725-.744924,4.77,0L284,245.2l88.24,51c.495576.126888.842196.573438.842196,1.085s-.34662.958112-.842196,1.085l-.03-.04Z" transform="translate(-50-45.37)" fill="#fff"/></g></g><g id="contact-u-speech-bubble"><path id="contact-s-path42" d="M324.57,45.74c1.47-.85,2.67-.16,2.67,1.54v196.59c-.104615,1.879656-1.095524,3.597975-2.67,4.63l-76.72,44.3-9,30c-.81,2.72-2.43,2.84-3.61.25L227,304.86l-22.4,12.93c-1.47.85-2.67.16-2.67-1.54v-196.59c.101444-1.880598,1.09312-3.600247,2.67-4.63L324.57,45.74Z" transform="translate(-50-45.37)" fill="#006aff"/><path id="contact-s-path43" d="M314.77,197.5c-.185732,2.581802-1.594206,4.919348-3.79,6.29l-42.15,24.34c-2.09,1.2-3.79.35-3.79-1.92.192065-2.57979,1.598944-4.91469,3.79-6.29L311,195.59c2.08-1.21,3.77-.35,3.77,1.91Z" transform="translate(-50-45.37)" fill="#fff"/><path id="contact-s-path44" d="M307,221.81c-.190489,2.580291-1.597764,4.915848-3.79,6.29L268.2,248.34c-2.09,1.21-3.78.35-3.78-1.92.186595-2.5763,1.590746-4.909123,3.78-6.28l35.05-20.24c2.09-1.21,3.75-.35,3.75,1.91Z" transform="translate(-50-45.37)" fill="#fff"/><path id="contact-s-path45" d="M243.85,256.39l-.09-1.18c-1.91,4.82-4.79,8.28-8,10.13-5.67,3.28-10.74.37-10.74-8.31c0-8.18,4-17.15,10.23-20.72c4.09-2.36,6.88-.62,7.34.41v-2c0-1.11,1.13-2.66,2.51-3.46s2.52-.07,2.52,1.64v18.55c0,2.36.88,2.84,2.13,2.11c2.28-1.31,4.38-6.92,4.38-13.31c0-12.34-6.47-18.09-16.79-12.13-9.67,5.58-17.34,19.68-17.34,32c0,12.09,7.25,16.7,16.74,11.23c2.72542-1.69305,5.140402-3.840828,7.14-6.35c1.08-1.32,2.26-1.72,2.78-.78s.2,2.88-.87,4.2c-2.530051,3.174843-5.571756,5.905619-9,8.08-11.81,6.81-20.74.87-20.74-14.07c0-15.26,9.35-32.37,21.34-39.3s20.78-.77,20.78,14.67c0,9.36-3.67,17.56-8.88,20.56-2.88,1.58-4.93,1.21-5.44-1.97Zm-13.39-2.81c0,4.78,2.32,7.4,5.86,5.36s6-7.28,6-12.11c0-4.65-2.37-7-6.05-4.88-3.49,1.98-5.81,7.05-5.81,11.63Z" transform="translate(-50-45.37)" fill="#fff"/></g><g id="contact-u-character" style="mix-blend-mode:hard-light;isolation:isolate" paint-order="fill markers stroke"><path id="contact-s-path46" d="M264.56,109c20.71-12,37.49-2.26,37.49,21.65s-16.78,53-37.49,64.94-37.49,2.26-37.49-21.65s16.78-52.94,37.49-64.94Z" transform="translate(-50-45.37)" fill="#fff"/><path id="contact-s-path47" d="M264.56,109c20.71-12,37.49-2.26,37.49,21.65s-16.78,53-37.49,64.94-37.49,2.26-37.49-21.65s16.78-52.94,37.49-64.94Z" transform="translate(-50-45.37)" fill="#f5f5f5"/><g id="contact-s-g1" clip-path="url(#contact-u-clip-path)"><g id="contact-s-g2"><path id="contact-s-path48" d="M250.89,140.75c-1.718074.296929-3.253107,1.250945-4.28,2.66-1.84,2.37-1.46,5.75,0,13.36l5.69-.87-1.41-15.15Z" transform="translate(-50-45.37)" fill="#1a2e35"/><path id="contact-s-path49" d="M284.05,129.55c1.27803-.341385,2.484004-.910496,3.56-1.68c1.75-1.47,2.2.4,1.24,2.38-1.285902,2.850987-3.658854,5.069103-6.59,6.16-.06-.24-1.64-4-1.64-4l3.43-2.86Z" transform="translate(-50-45.37)" fill="#1a2e35"/><path id="contact-s-path50" d="M254.16,180c0,0-10.6,6.84-12.9,9.25s-3.25,9.92-4.1,19.11c0,0,12.07,5.09,31-4.28s20.64-16.78,20.64-16.78-2.45-11.13-3.36-14.22c-1.15-3.91-3.37-6.73-16.28-.87l-15,7.79Z" transform="translate(-50-45.37)" fill="#1a2e35"/><path id="contact-s-path51" d="M253.56,155.57c-.85.73-2.05-.57-3.09-1.38s-4.44-1.39-6.14,2.64s2.2,7.89,4.5,8.88c1.607762.676155,3.463142.338813,4.73-.86l.6,15.15c0,0,3,5.19,11.2,4.11s6.49-9.32,3.81-11.9v-3.12c0,0,4.23-.28,6.22-1.34c1.07-.57,3.61-4.33,5.25-8.21c3.381645-7.147251,4.152969-15.253231,2.18-22.91-2.93-11.68-16.32-8.47-24.3-1.31s-4.96,20.25-4.96,20.25Z" transform="translate(-50-45.37)" fill="#ffaaa8"/><path id="contact-s-path52" d="M286.36,117.83c-.72-2.36-1.16-1.94-6.95,2.13-4.422151,3.113569-9.357271,5.425426-14.58,6.83-4.08,1.24-9.66,2.22-12.53,6-1.234374,1.625635-1.863784,3.630552-1.78,5.67-.243251-.225566-.53879-.387082-.86-.47-1.41-.38-3.14.65-3.87,2.31l5,1.33c-.39,2.88-1.51,11.77-.29,12.55c1.05.67,2.66,2.92,3.09,2.8c1.43-.41,2-6.75,2.78-10.59.85-4.37,1.18-6,2.75-6.18c5.099134-.803886,10.118237-2.05197,15-3.73c5.4-2.11,6.95-3.9,6.95-3.9l2.88-1.83c2.599822-3.769767,3.475907-8.466456,2.41-12.92Z" transform="translate(-50-45.37)" fill="#1a2e35"/><path id="contact-s-path53" d="M269.15,169.09c0,0-7.57.51-10.21-.19-1.520713-.362245-2.836418-1.311278-3.66-2.64.374141,1.390348,1.089035,2.665472,2.08,3.71c1.93,2,11.79,1.14,11.79,1.14v-2.02Z" transform="translate(-50-45.37)" fill="#ff9090"/><path id="contact-s-path54" d="M267.22,160.3l3.46.37c-.292867,1.055002-1.25511,1.783849-2.35,1.78-.96-.1-1.45-1.06-1.11-2.15Z" transform="translate(-50-45.37)" fill="#ff9090"/><polygon id="contact-s-polygon1" points="222.22,101.43 222.72,110.42 227.49,107.52 222.22,101.43" fill="#ff9090"/><path id="contact-s-path55" d="M267.33,150c-.019537.922482-.628137,1.728574-1.51,2-.36507.125154-.768575.058846-1.074395-.176555s-.473174-.608505-.445605-.993445c.024013-.924114.636056-1.729434,1.52-2c.364094-.126372.767389-.060227,1.07204.175828s.46941.610055.43796.994172Z" transform="translate(-50-45.37)" fill="#1a2e35"/><path id="contact-s-path56" d="M265.72,144.69l-3.24,2.66c-.43206-.993168-.116074-2.153169.76-2.79.32298-.357461.789834-.550362,1.270935-.525143s.925228.265874,1.209065.655143Z" transform="translate(-50-45.37)" fill="#1a2e35"/><path id="contact-s-path57" d="M280.86,141.89l-3-1.48c.466634-.957164,1.568442-1.422657,2.58-1.09.413232.272052.69374.704637.773535,1.192905s-.048408.987646-.353535,1.377095Z" transform="translate(-50-45.37)" fill="#1a2e35"/><path id="contact-s-path58" d="M280,146.17c-.025636.920354-.631853,1.723291-1.51,2-.36507.125154-.768575.058846-1.074395-.176555s-.473174-.608505-.445605-.993445c.024013-.924114.636056-1.729434,1.52-2c.364094-.126372.767389-.060227,1.07204.175828s.46941.610055.43796.994172Z" transform="translate(-50-45.37)" fill="#1a2e35"/></g><clipPath id="contact-u-clip-path" transform="translate(-50-45.37)"><path id="contact-s-path59" d="M264.56,109c20.71-12,37.49-2.26,37.49,21.65s-16.78,53-37.49,64.94-37.49,2.26-37.49-21.65s16.78-52.94,37.49-64.94Z" fill="#f5f5f5"/></clipPath></g></g></svg>
